<?xml version="1.0" standalone="no"?>
<!DOCTYPE svg PUBLIC "-//W3C//DTD SVG 20010904//EN"
 "http://www.w3.org/TR/2001/REC-SVG-20010904/DTD/svg10.dtd">
<svg version="1.0" xmlns="http://www.w3.org/2000/svg"
 width="268.000000pt" height="312.000000pt" viewBox="0 0 268.000000 312.000000"
 preserveAspectRatio="xMidYMid meet">

<g transform="translate(0.000000,312.000000) scale(0.100000,-0.100000)"
fill="#000000" stroke="none">
<path d="M1157 3109 c-114 -27 -165 -83 -176 -194 -6 -58 -7 -60 -41 -70 -49
-14 -60 -23 -60 -49 0 -43 61 -147 121 -205 56 -53 59 -59 59 -104 0 -32 8
-63 25 -95 48 -90 210 -345 219 -344 5 0 42 80 82 177 75 178 84 216 65 283
-8 26 -6 34 9 45 59 41 154 197 148 245 -3 23 -9 28 -45 36 -42 10 -43 11 -53
65 -17 84 -28 107 -75 150 -67 62 -173 85 -278 60z"/>
<path d="M800 2331 c-111 -24 -181 -57 -254 -122 -54 -49 -66 -68 -152 -246
-62 -126 -104 -228 -123 -297 -37 -130 -85 -348 -106 -481 -9 -55 -27 -148
-40 -207 -14 -59 -25 -109 -25 -112 0 -3 27 -6 59 -8 l59 -3 -85 -100 c-118
-139 -137 -174 -129 -232 7 -55 123 -350 147 -374 13 -13 54 -17 268 -22 142
-3 290 -2 338 4 95 11 216 55 276 102 l39 29 46 -45 c26 -25 67 -55 92 -66 49
-21 230 -71 439 -121 133 -32 135 -32 200 -17 96 23 310 62 511 92 96 14 183
29 193 33 19 8 127 255 127 290 0 10 -55 68 -122 129 -166 151 -266 253 -248
253 8 0 34 -7 58 -15 66 -23 82 -10 82 69 0 65 -52 397 -95 614 -28 135 -84
296 -143 405 -85 157 -106 194 -149 255 -58 81 -91 105 -183 135 -113 37 -270
71 -279 61 -11 -12 -95 -284 -165 -534 -30 -107 -87 -298 -127 -425 -70 -226
-131 -437 -126 -441 1 -1 106 -9 232 -18 127 -9 258 -19 293 -22 l63 -6 -28
-30 c-35 -37 -115 -60 -212 -61 -149 -2 -670 16 -682 24 -10 6 -9 14 0 38 12
28 43 46 110 63 9 3 36 81 73 208 32 113 85 290 118 393 33 104 60 194 60 201
0 17 -218 577 -236 604 -18 27 -54 28 -174 3z"/>
</g>
</svg>
